<svg id="Layer_3" enable-background="new 0 0 64 64" height="512" viewBox="0 0 64 64" width="512" xmlns="http://www.w3.org/2000/svg"><g><path d="m26 56 2 6h4l2-6" fill="#f4b2b0"/><path d="m52 56 2 6h4l2-6" fill="#f4b2b0"/><path d="m36 10 3-8h8l3 8" fill="#f4b2b0"/><g fill="#b3404a"><path d="m28 20.999h9.999c.553 0 1-.447 1-1v-6c0-.553-.447-1-1-1h-9.999c-.553 0-1 .447-1 1v6c0 .553.447 1 1 1zm1-5.999h7.999v4h-7.999z"/><path d="m28 30.999h9.999c.553 0 1-.447 1-1v-6c0-.553-.447-1-1-1h-9.999c-.553 0-1 .447-1 1v6c0 .553.447 1 1 1zm1-5.999h7.999v4h-7.999z"/><path d="m31 42.999c2.205 0 3.999-1.794 3.999-4s-1.794-4-3.999-4c-2.206 0-4 1.794-4 4s1.794 4 4 4zm0-5.999c1.103 0 1.999.897 1.999 2s-.896 2-1.999 2c-1.104 0-2-.897-2-2 0-1.104.896-2 2-2z"/><path d="m57.999 35h-19.999c-.553 0-1 .447-1 1v16c0 .553.447 1 1 1h19.999c.553 0 1-.447 1-1v-16c0-.553-.447-1-1-1zm-1 2v2h-17.999v-2zm-17.999 6v-2h17.999v2zm17.999 1.999v2h-17.999v-2zm-17.999 6v-2h17.999v2z"/><path d="m52 32.999c3.859 0 6.999-3.14 6.999-7s-3.14-7-6.999-7c-3.86 0-7 3.14-7 7s3.14 7 7 7zm0-11.999c2.757 0 4.999 2.243 4.999 5s-2.242 5-4.999 5c-2.758 0-5-2.243-5-5 0-2.758 2.242-5 5-5z"/><path d="m52 28.999c1.653 0 2.999-1.346 2.999-3s-1.346-3-2.999-3c-1.654 0-3 1.346-3 3s1.346 3 3 3zm0-3.999c.551 0 .999.448.999 1 0 .551-.448 1-.999 1-.552 0-1-.448-1-1s.448-1 1-1z"/><path d="m1.835 7.986 5.999 1c.055.009.109.014.165.014.234 0 .464-.083.646-.237.224-.19.353-.469.353-.763h1.001c.534 0 1.036.208 1.414.585.378.378.585.88.585 1.415v3c-1.103 0-1.999.897-1.999 1.999v.001h-3c-.552 0-.999.448-.999 1v3c0 .227.077.447.219.625l3.78 4.725v5.65c0 1.336.52 2.591 1.464 3.536.704.704 1.582 1.171 2.537 1.363v10.101c0 2.757 2.242 5 5 5h4v4c0 1.391.956 2.553 2.242 2.891l1.808 5.425c.136.408.519.684.949.684h3.999c.431 0 .813-.275.949-.684l1.772-5.316h16.558l1.772 5.316c.136.408.519.684.949.684h3.998c.431 0 .813-.275.949-.684l1.808-5.425c1.287-.338 2.243-1.5 2.243-2.891v-42c0-1.654-1.346-3-3-3h-9.307l-2.757-7.352c-.143-.39-.516-.648-.933-.648h-7.999c-.417 0-.79.258-.937.648l-2.756 7.352h-9.307c-1.654 0-3 1.346-3 3v36h-4c-1.654 0-3-1.346-3-3v-10.102c2.279-.465 4-2.484 4-4.898v-15c0-1.103-.897-2-2-2h-.002v-4.001c0-3.859-3.14-7-7-7h-2c0-.294-.129-.573-.353-.763-.225-.19-.52-.268-.811-.224l-5.999 1c-.482.082-.835.499-.835.988v4c0 .489.353.906.835.986zm29.443 53.013h-2.558l-1.334-4h5.225zm25.999 0h-2.557l-1.334-4h5.224zm-17.585-57.999h6.614l2.25 6h-11.114zm-14.692 9c0-.552.448-1 1-1h33.999c.552 0 1 .448 1 1v42c0 .552-.448 1-1 1h-33.999c-.552 0-1-.448-1-1v-4h2.142c.447 1.72 1.999 3 3.858 3 2.205 0 3.999-1.794 3.999-4s-1.794-4-3.999-4c-1.859 0-3.411 1.279-3.858 3h-2.142zm4.278 35.999c.347-.595.984-1 1.722-1 1.103 0 1.999.897 1.999 2s-.896 2-1.999 2c-.737 0-1.375-.405-1.722-1h1.721v-2zm-21.278-29.35v-1.649h1.999v4.148zm7 14.35c-.001 0-.002 0-.002 0-.802 0-1.555-.312-2.121-.878-.321-.321-.549-.706-.696-1.121h5.635c-.415 1.161-1.515 1.999-2.816 1.999zm3-3.999h-6.001v-14l6.001-.001zm-7.001-25c2.757 0 4.999 2.243 4.999 5v4h-2v-3c0-1.069-.416-2.073-1.171-2.829s-1.76-1.171-2.827-1.171c-.001 0-.001 0-.001 0h-1.001v-2zm-7.999-.153 3.998-.667v3.639l-3.998-.666z"/><path d="m57 13h1.999v2h-1.999z"/><path d="m53 13h1.999v2h-1.999z"/><path d="m49 13h1.999v2h-1.999z"/><path d="m45 13h1.999v2h-1.999z"/><path d="m14 17h1.999v2h-1.999z"/></g></g></svg>