<svg id="Layer_1" enable-background="new 0 0 512 512" height="512" viewBox="0 0 512 512" width="512" xmlns="http://www.w3.org/2000/svg"><g clip-rule="evenodd" fill-rule="evenodd"><path d="m376.502 221.871c0 32.457-26.562 58.99-58.99 58.99l-63.1 4.507-59.925-4.507c-32.429 0-58.99-26.533-58.99-58.99l120.417-7.994zm-95.188 92.013c14.202 30.473 23.698 85.863 23.698 149.133 0 26.93-22.054 48.983-49.012 48.983s-49.012-22.054-49.012-48.983c0-63.27 9.496-118.66 23.698-149.133l24.719-4.762z" fill="#f5bc98"/><path d="m317.512 280.86v7.427c0 14.088-11.509 25.597-25.597 25.597h-71.831c-14.06 0-25.597-11.508-25.597-25.597v-7.427z" fill="#d68756"/><path d="m317.512 280.86v7.427c0 14.088-11.509 25.597-25.597 25.597h-29.991c14.06 0 25.569-11.508 25.569-25.597v-7.427z" fill="#c47443"/><path d="m376.502 221.871c0 32.457-26.562 58.99-58.99 58.99h-30.018c32.456 0 59.017-26.533 59.017-58.99zm-95.188 92.013c14.202 30.473 23.698 85.863 23.698 149.133 0 26.93-22.054 48.983-49.012 48.983-5.216 0-10.261-.822-14.995-2.353 19.672-6.378 33.987-24.917 33.987-46.63 0-63.27-9.496-118.66-23.669-149.133z" fill="#e59b6c"/><path d="m256 441.388c11.962 0 21.629 9.667 21.629 21.629 0 11.934-9.667 21.628-21.629 21.628-11.934 0-21.629-9.694-21.629-21.628 0-11.963 9.695-21.629 21.629-21.629z" fill="#365e7d"/><path d="m141.507 167.02h228.985c3.316 0 6.01-2.721 6.01-6.01v-155c0-3.316-2.693-6.01-6.01-6.01h-228.985c-3.316 0-6.01 2.693-6.01 6.01v155c.001 3.288 2.694 6.01 6.01 6.01z" fill="#fff9df"/><path d="m346.511 26.023h29.991v131.104h-29.991z" fill="#fff3bf"/><path d="m376.502 40.876v-34.866c0-3.316-2.693-6.01-6.01-6.01h-31.492v40.876c0 10.318 8.447 18.737 18.765 18.737 10.29 0 18.737-8.447 18.737-18.737zm-127.419 6.236c-.397-1.048-1.077-1.02-1.077 0v18.766c0 10.29-8.447 18.737-18.766 18.737-10.29 0-18.737-8.419-18.737-18.737v-27.241c0-1.445-.964-1.531-1.701 0-3.062 6.407-9.496 10.999-17.064 10.999-7.541 0-14.061-4.535-17.037-10.999-.539-1.162-1.701-1.389-1.701 0v57.232c0 10.318-8.447 18.766-18.737 18.766-10.319 0-18.766-8.447-18.766-18.766v-89.859c0-3.316 2.693-6.01 6.01-6.01h144.002v40.876c0 10.29-8.448 18.737-18.766 18.737-8.135 0-14.995-5.272-17.66-12.501z" fill="#fc7070"/><path d="m135.498 157.126h241.005v64.744h-241.005z" fill="#365e7d"/><path d="m346.511 157.126h29.991v64.744h-29.991z" fill="#2b4d66"/><path d="m376.502 196.614v-14.23c-.709-.227-1.446-.369-2.24-.369h-23.755c-4.11 0-7.455 3.345-7.455 7.483 0 4.139 3.345 7.484 7.455 7.484h23.755c.795 0 1.531-.142 2.24-.368zm-241.004-14.599v14.939l23.755.028c4.139 0 7.483-3.345 7.483-7.484s-3.345-7.483-7.483-7.483zm161.265 14.967c-4.139 0-7.483-3.345-7.483-7.484s3.345-7.483 7.483-7.483h23.755c4.11 0 7.455 3.345 7.455 7.483 0 4.139-3.345 7.484-7.455 7.484zm-53.745 0c-4.139 0-7.484-3.345-7.484-7.484s3.346-7.483 7.484-7.483h23.754c4.11 0 7.455 3.345 7.455 7.483 0 4.139-3.345 7.484-7.455 7.484zm-53.775 0c-4.11 0-7.455-3.345-7.455-7.484s3.345-7.483 7.455-7.483h23.755c4.139 0 7.483 3.345 7.483 7.483 0 4.139-3.345 7.484-7.483 7.484z" fill="#f4fbff"/></g></svg>