<?xml version="1.0" encoding="iso-8859-1"?>
<!-- Generator: Adobe Illustrator 19.0.0, SVG Export Plug-In . SVG Version: 6.00 Build 0)  -->
<svg version="1.1" id="Layer_1" xmlns="http://www.w3.org/2000/svg" xmlns:xlink="http://www.w3.org/1999/xlink" x="0px" y="0px"
	 viewBox="0 0 512.001 512.001" style="enable-background:new 0 0 512.001 512.001;" xml:space="preserve">
<path style="fill:#808080;" d="M338.561,184.993l-23.625,28.549l47.606,14.942l43.786-52.588
	c17.688-21.424,14.659-53.129-6.766-70.816c-0.418-0.345-1.267-1.012-1.267-1.012l73.921-88.129c0.799-0.952,0.669-2.373-0.29-3.165
	L460.63,3.448c-5.384-4.445-13.122-4.589-18.668-0.348l-68.514,54.597l-45.97,55.678l0.038,0.032
	c-16.296,21.378-12.92,51.99,7.991,69.253C336.505,183.483,337.523,184.26,338.561,184.993z"/>
<path style="fill:#666666;" d="M404.256,96.963l67.962-81.025c0.499-0.595,0.636-1.373,0.434-2.067
	c-0.006-0.02-0.017-0.038-0.023-0.058c-0.083-0.257-0.208-0.502-0.384-0.72c-0.093-0.115-0.198-0.223-0.317-0.32l-6.141-5.07
	l-5.155-4.256c-0.43-0.356-0.881-0.674-1.339-0.974c-0.119-0.078-0.24-0.153-0.361-0.227c-0.404-0.248-0.817-0.479-1.238-0.686
	c-0.066-0.032-0.129-0.07-0.196-0.101c-0.499-0.236-1.009-0.44-1.526-0.618c-0.082-0.028-0.164-0.052-0.246-0.078
	c-0.476-0.154-0.957-0.286-1.443-0.392c-0.058-0.013-0.115-0.027-0.172-0.039c-1.127-0.23-2.275-0.331-3.421-0.301
	c-0.022,0.001-0.044,0.001-0.066,0.001c-1.169,0.037-2.335,0.208-3.473,0.516l0,0l-69.506,82.866c0,0,0.849,0.666,1.267,1.012
	c21.424,17.687,24.454,49.393,6.765,70.816l-27.043,32.753c-7.351,8.904-19.269,12.623-30.38,9.48l-0.105,0.098l-13.212,15.966
	l47.606,14.942l43.786-52.588c10.502-12.72,13.701-29.065,10.082-43.949c-0.762-3.133-1.826-6.202-3.188-9.158
	c-1.021-2.217-2.21-4.371-3.564-6.442c-0.903-1.381-1.879-2.724-2.928-4.025s-2.172-2.559-3.366-3.768
	c-1.195-1.209-2.462-2.369-3.801-3.475c-0.418-0.345-1.267-1.012-1.267-1.012L404.256,96.963z"/>
<path style="fill:#999999;" d="M508.914,70.048c4.242-5.545,4.098-13.283-0.347-18.667l-9.326-11.296
	c-0.791-0.958-2.212-1.089-3.164-0.29l-88.134,73.917c0,0-0.666-0.848-1.012-1.267c-17.688-21.423-49.396-24.452-70.82-6.765
	l-53.015,43.928l14.983,47.736l28.935-23.9c0.733,1.038,1.51,2.057,2.332,3.053c17.264,20.91,47.878,24.286,69.257,7.991
	l0.032,0.038l55.681-45.967L508.914,70.048z"/>
<path style="fill:#808080;" d="M398.633,184.525l55.681-45.967L486.35,98.36l22.564-28.312c1.06-1.386,1.847-2.91,2.36-4.499
	c0.385-1.192,0.617-2.421,0.696-3.657c0.236-3.709-0.903-7.482-3.403-10.511l-4.843-5.865l-4.484-5.43
	c-0.396-0.479-0.949-0.751-1.522-0.804c-0.573-0.052-1.166,0.115-1.643,0.514l-5.407,4.535c-0.505,1.762-1.327,3.455-2.494,4.98
	l-54.6,68.51l-55.681,45.967l-0.032-0.038c-21.379,16.295-51.992,12.92-69.257-7.991c-0.822-0.996-1.6-2.015-2.332-3.053
	l-17.754,14.186l9.558,30.452l28.935-23.9c0.366,0.519,0.744,1.033,1.133,1.542s0.789,1.013,1.2,1.511
	c2.576,3.12,5.454,5.84,8.55,8.173c3.673,2.767,7.658,4.971,11.831,6.607c0.783,0.307,1.571,0.593,2.366,0.86
	c1.121,0.376,2.249,0.725,3.39,1.02c0.762,0.197,1.528,0.376,2.297,0.538c2.308,0.484,4.647,0.805,6.998,0.962
	c2.351,0.157,4.713,0.15,7.069-0.022c0.785-0.058,1.57-0.134,2.353-0.228c8.614-1.039,17.054-4.316,24.403-9.918L398.633,184.525z"
	/>
<circle style="fill:#CCCCCC;" cx="367.98" cy="145.241" r="27.92"/>
<path style="fill:#B3B3B3;" d="M367.983,173.155c15.42,0,27.92-12.499,27.92-27.918c0-8.179-3.518-15.536-9.123-20.642
	l-39.58,39.278C352.312,169.569,359.728,173.155,367.983,173.155z"/>
<path style="fill:#FFA227;" d="M105.246,473.883c22.883-27.331,43.49-41.429,91.498-80.613
	c13.565-11.072,26.378-21.53,36.359-30.099c32.182-27.63,68.243-113.031,78.691-150.923c0.653-2.367,3.115-3.735,5.477-3.067
	l54.343,15.371c3.427,0.969,4.382,5.372,1.654,7.661c-6.888,5.779-18.117,14.911-23.119,26.281
	c-18.246,41.477-52.022,110.313-86.667,140.056c-10.421,8.949-23.452,19.584-37.249,30.844
	c-34.247,27.953-63.469,48.218-85.361,74.348c-6.72,8.021-18.007,10.482-27.504,6.087l0,0
	C99.512,503.419,95.446,485.588,105.246,473.883z"/>
<path style="fill:#F78B0B;" d="M371.614,224.552l-26.378-7.461c-6.016,5.402-12.641,12.302-16.169,20.323
	c-18.247,41.477-52.022,110.313-86.666,140.056c-10.421,8.949-23.453,19.584-37.249,30.844
	c-34.247,27.953-63.469,48.218-85.361,74.348c-4.969,5.931-12.435,8.811-19.828,8.138c0.725,7.894,5.446,15.346,13.405,19.029
	c9.497,4.394,20.784,1.934,27.504-6.087c21.892-26.13,51.114-46.395,85.361-74.348c13.796-11.26,26.827-21.896,37.249-30.844
	c34.645-29.743,68.42-98.579,86.666-140.056c5.002-11.37,16.231-20.503,23.119-26.281
	C375.996,229.924,375.04,225.522,371.614,224.552z"/>
<path style="fill:#FFA227;" d="M2.157,398.626L2.157,398.626c-4.394-9.497-1.934-20.783,6.088-27.503
	c26.131-21.891,46.397-51.112,74.352-85.357c11.261-13.796,21.897-26.826,30.846-37.247c29.745-34.643,98.584-68.416,140.064-86.662
	c11.37-5.001,20.504-16.23,26.283-23.118c2.289-2.728,6.692-1.773,7.661,1.654l15.372,54.34c0.668,2.362-0.7,4.824-3.067,5.477
	c-37.894,10.447-123.299,46.506-150.931,78.687c-8.569,9.981-19.028,22.793-30.101,36.357
	c-39.186,48.005-53.285,68.611-80.617,91.493C26.401,416.546,8.568,412.48,2.157,398.626z"/>
<path style="fill:#F78B0B;" d="M296.881,173.73c-7.488,2.785-16.373,5.55-17.693,5.914
	c-37.894,10.447-123.299,46.506-150.931,78.687c-8.569,9.981-19.028,22.793-30.101,36.357
	c-39.186,48.005-53.285,68.611-80.617,91.493c-5.115,4.282-11.399,5.916-17.389,5.244c0.273,2.446,0.932,4.877,2.008,7.202
	c6.411,13.854,24.243,17.92,35.949,8.121c27.332-22.882,41.431-43.488,80.617-91.493c11.073-13.564,21.532-26.376,30.101-36.357
	c27.631-32.18,113.037-68.24,150.931-78.687c2.367-0.653,3.735-3.114,3.067-5.477L296.881,173.73z"/>
<g>
</g>
<g>
</g>
<g>
</g>
<g>
</g>
<g>
</g>
<g>
</g>
<g>
</g>
<g>
</g>
<g>
</g>
<g>
</g>
<g>
</g>
<g>
</g>
<g>
</g>
<g>
</g>
<g>
</g>
</svg>
