<svg id="icons" enable-background="new 0 0 64 64" height="512" viewBox="0 0 64 64" width="512" xmlns="http://www.w3.org/2000/svg"><path d="m55 8.5h-1-8-5-4-3-20-4c-2.21 0-4 1.79-4 4v18c0 2.21 1.79 4 4 4h4 4c2.21 0 4-1.79 4-4v-4c0-1.11.891-2 2-2h13c1.1 0 2 .89 2 2v19h20v-20-4-4-4-1c0-2.21-1.79-4-4-4z" fill="#94c1ff"/><circle cx="49" cy="35.5" fill="#fff" r="5"/><path d="m59 45.5v10c0 2.21-1.79 4-4 4h-46c-4.42 0-8-3.58-8-8v-4c0-1.11.891-2 2-2h11 25z" fill="#d7e9ff"/><path d="m39 4.5-2 4h-3v-4z" fill="#fff"/><path d="m43 4.5-2 4h-4l2-4z" fill="#d7e9ff"/><path d="m46 4.5v4h-5l2-4z" fill="#fff"/><path d="m44 13.5h10v5h-10z" fill="#5c9eff"/><path d="m62 13.5c.55 0 1 .45 1 1v10c0 .55-.45 1-1 1h-3v-4-4-4z" fill="#fff"/><path d="m28 14.5c1.1 0 2 .9 2 2s-.9 2-2 2-2-.9-2-2 .9-2 2-2z" fill="#fff"/><path d="m30 16.5c0-1.1-.9-2-2-2h6c1.1 0 2 .9 2 2s-.9 2-2 2h-6c1.1 0 2-.9 2-2z" fill="#5c9eff"/><g fill="#116fff"><path d="m9 60.5c-4.963 0-9-4.037-9-9 0-.553.447-1 1-1s1 .447 1 1c0 3.859 3.141 7 7 7 .553 0 1 .447 1 1s-.447 1-1 1z"/><path d="m55 60.5c-.553 0-1-.447-1-1s.447-1 1-1c1.654 0 3-1.346 3-3 0-.553.447-1 1-1s1 .447 1 1c0 2.757-2.243 5-5 5z"/><path d="m59.001 13.5c-.553 0-1-.447-1-1 0-1.654-1.346-3-3-3-.553 0-1-.447-1-1s.447-1 1-1c2.757 0 5 2.243 5 5 0 .553-.447 1-1 1z"/><path d="m5.998 13.5c-.553 0-1-.447-1-1 0-2.757 2.243-5 5-5 .553 0 1 .447 1 1s-.447 1-1 1c-1.654 0-3 1.346-3 3 0 .553-.447 1-1 1z"/><path d="m9.998 35.5c-2.757 0-5-2.243-5-5 0-.553.447-1 1-1s1 .447 1 1c0 1.654 1.346 3 3 3 .553 0 1 .447 1 1s-.447 1-1 1z"/><path d="m18 35.5c-.553 0-1-.447-1-1s.447-1 1-1c1.654 0 3-1.346 3-3 0-.553.447-1 1-1s1 .447 1 1c0 2.757-2.243 5-5 5z"/><path d="m22 27.5c-.553 0-1-.447-1-1 0-1.654 1.346-3 3-3 .553 0 1 .447 1 1s-.447 1-1 1c-.552 0-1 .448-1 1 0 .553-.447 1-1 1z"/><path d="m38.999 27.5c-.553 0-1-.447-1-1 0-.552-.448-1-1-1-.553 0-1-.447-1-1s.447-1 1-1c1.654 0 3 1.346 3 3 0 .553-.447 1-1 1z"/><path d="m1 52.5c-.553 0-1-.447-1-1v-4c0-.553.447-1 1-1s1 .447 1 1v4c0 .553-.447 1-1 1z"/><path d="m59 56.5c-.553 0-1-.447-1-1v-43c0-.553.447-1 1-1s1 .447 1 1v43c0 .553-.447 1-1 1z"/><path d="m55 60.5h-46c-.553 0-1-.447-1-1s.447-1 1-1h46c.553 0 1 .447 1 1s-.447 1-1 1z"/><path d="m1 48.5c-.553 0-1-.447-1-1 0-1.654 1.346-3 3-3 .553 0 1 .447 1 1s-.447 1-1 1c-.552 0-1 .448-1 1 0 .553-.447 1-1 1z"/><path d="m59.001 46.5h-56.001c-.553 0-1-.447-1-1s.447-1 1-1h56.001c.553 0 1 .447 1 1s-.447 1-1 1z"/><path d="m55.001 9.5h-45.001c-.553 0-1-.447-1-1s.447-1 1-1h45.001c.553 0 1 .447 1 1s-.447 1-1 1z"/><path d="m5.998 31.5c-.553 0-1-.447-1-1v-18c0-.553.447-1 1-1s1 .447 1 1v18c0 .553-.447 1-1 1z"/><path d="m18 35.5h-8.002c-.553 0-1-.447-1-1s.447-1 1-1h8.002c.553 0 1 .447 1 1s-.447 1-1 1z"/><path d="m38.999 46.5c-.553 0-1-.447-1-1v-19c0-.553.447-1 1-1s1 .447 1 1v19c0 .553-.447 1-1 1z"/><path d="m36.999 25.5h-12.999c-.553 0-1-.447-1-1s.447-1 1-1h12.999c.553 0 1 .447 1 1s-.447 1-1 1z"/><path d="m22 31.5c-.553 0-1-.447-1-1v-4c0-.553.447-1 1-1s1 .447 1 1v4c0 .553-.447 1-1 1z"/><path d="m14 43.5c-.553 0-1-.447-1-1v-7.999c0-.553.447-1 1-1s1 .447 1 1v7.999c0 .553-.447 1-1 1z"/><path d="m16 38.499h-2.001c-.553 0-1-.447-1-1s.447-1 1-1h2.001c.553 0 1 .447 1 1s-.447 1-1 1z"/><path d="m62 14.5h-2.999c-.553 0-1-.447-1-1s.447-1 1-1h2.999c.553 0 1 .447 1 1s-.447 1-1 1z"/><path d="m63 15.5c-.553 0-1-.447-1-1v-.002c-.553 0-1-.446-1-.999 0-.552.447-.999 1-.999 1.103 0 2 .897 2 2 0 .553-.447 1-1 1z"/><path d="m62 26.5h-2.999c-.553 0-1-.447-1-1s.447-1 1-1h2.999c.553 0 1 .447 1 1s-.447 1-1 1z"/><path d="m62 26.5c-.553 0-1-.447-1-1s.447-1 1-1c0-.553.447-1 1-1s1 .447 1 1c0 1.103-.897 2-2 2z"/><path d="m63 25.5c-.553 0-1-.447-1-1v-10c0-.553.447-1 1-1s1 .447 1 1v10c0 .553-.447 1-1 1z"/><path d="m60 18.5h-1c-.553 0-1-.447-1-1s.447-1 1-1h1c.553 0 1 .447 1 1s-.447 1-1 1z"/><path d="m60 22.5h-.999c-.553 0-1-.447-1-1s.447-1 1-1h.999c.553 0 1 .447 1 1s-.447 1-1 1z"/><path d="m49 41.5c-3.309 0-6-2.691-6-6s2.691-6 6-6 6 2.691 6 6-2.691 6-6 6zm0-10c-2.206 0-4 1.794-4 4s1.794 4 4 4 4-1.794 4-4-1.794-4-4-4z"/><path d="m49.03 28.5c-.553 0-1.005-.447-1.005-1s.442-1 .994-1h.011c.552 0 1 .447 1 1s-.448 1-1 1z"/><path d="m49.03 34.5c-.553 0-1.005-.447-1.005-1s.442-1 .994-1h.011c.552 0 1 .447 1 1s-.448 1-1 1z"/><path d="m45.03 29.572c-.553 0-1.005-.447-1.005-1s.442-1 .994-1h.011c.552 0 1 .447 1 1s-.448 1-1 1z"/><path d="m42.102 32.5c-.553 0-1.005-.447-1.005-1s.442-1 .994-1h.011c.552 0 1 .447 1 1s-.449 1-1 1z"/><path d="m55.957 32.5c-.553 0-1.005-.447-1.005-1s.442-1 .994-1h.011c.552 0 1 .447 1 1s-.448 1-1 1z"/><path d="m53.028 29.572c-.553 0-1.005-.447-1.005-1s.442-1 .994-1h.011c.552 0 1 .447 1 1s-.448 1-1 1z"/><path d="m14 32.5c-.553 0-1-.447-1-1v-23c0-.553.447-1 1-1s1 .447 1 1v23c0 .553-.447 1-1 1z"/><path d="m54 19.5h-10c-.553 0-1-.447-1-1v-5c0-.553.447-1 1-1h10c.553 0 1 .447 1 1v5c0 .553-.447 1-1 1zm-9-2h8v-3h-8z"/><path d="m28 19.5c-1.654 0-3-1.346-3-3s1.346-3 3-3 3 1.346 3 3-1.346 3-3 3zm0-4c-.552 0-1 .448-1 1s.448 1 1 1 1-.448 1-1-.448-1-1-1z"/><path d="m34 19.5c-.553 0-1-.447-1-1s.447-1 1-1c.552 0 1-.448 1-1s-.448-1-1-1c-.553 0-1-.447-1-1s.447-1 1-1c1.654 0 3 1.346 3 3s-1.346 3-3 3z"/><path d="m34 19.5h-6c-.553 0-1-.447-1-1s.447-1 1-1h6c.553 0 1 .447 1 1s-.447 1-1 1z"/><path d="m34 15.5h-6c-.553 0-1-.447-1-1s.447-1 1-1h6c.553 0 1 .447 1 1s-.447 1-1 1z"/><path d="m34 9.5c-.553 0-1-.447-1-1v-4c0-.553.447-1 1-1s1 .447 1 1v4c0 .553-.447 1-1 1z"/><path d="m46 5.5h-12c-.553 0-1-.447-1-1s.447-1 1-1h12c.553 0 1 .447 1 1s-.447 1-1 1z"/><path d="m46 9.5c-.553 0-1-.447-1-1v-4c0-.553.447-1 1-1s1 .447 1 1v4c0 .553-.447 1-1 1z"/><path d="m36.999 9.5c-.15 0-.303-.034-.446-.105-.494-.247-.694-.848-.447-1.342l2-4c.248-.494.849-.693 1.342-.447.494.247.694.848.447 1.342l-2 4c-.176.35-.529.552-.896.552z"/><path d="m40.999 9.5c-.15 0-.303-.034-.446-.105-.494-.247-.694-.848-.447-1.342l2-4c.248-.494.848-.693 1.342-.447.494.247.694.848.447 1.342l-2 4c-.176.35-.529.552-.896.552z"/><path d="m54 9.5c-.553 0-1-.447-1-1v-3c0-.553.447-1 1-1s1 .447 1 1v3c0 .553-.447 1-1 1z"/><path d="m55.001 6.5h-2.001c-.553 0-1-.447-1-1s.447-1 1-1h2.001c.553 0 1 .447 1 1s-.447 1-1 1z"/><path d="m18 42.499h-8c-.553 0-1-.447-1-1s.447-1 1-1h8c.553 0 1 .447 1 1s-.447 1-1 1z"/><path d="m18 42.499c-.256 0-.512-.098-.707-.293-.391-.391-.391-1.024 0-1.414l1-.999c.391-.391 1.023-.391 1.414 0s.391 1.024 0 1.414l-1 .999c-.195.195-.451.293-.707.293z"/><path d="m10 42.499c-.256 0-.512-.098-.707-.293l-1-.999c-.391-.39-.391-1.023 0-1.414s1.023-.391 1.414 0l1 .999c.391.39.391 1.023 0 1.414-.195.195-.451.293-.707.293z"/></g></svg>